# xmcd
#
# Track frame offsets:
# 150
# 18450
# 31198
# 43308
# 62804
# 73379
# 87475
# 98799
# 113199
# 127058
#
# Disc length: 1848 seconds
#
#
# Revision: 0
# Processed by: cddbd v1.5.1PL2 Copyright (c) Steve Scherf et al.
# Submitted via: FreeRIP 2.945 
#
DISCID=9207360a
DTITLE=Le Garde Twins and Sharon - Song of the West
DYEAR=1900
DGENRE=western
TTITLE0=ghostriders in the sky
TTITLE1=wayward wind
TTITLE2=tumbling tumble weeds
TTITLE3=el paso city
TTITLE4=river of no return
TTITLE5=they call the wind mariah
TTITLE6=my adobe hacienda
TTITLE7=high noon
TTITLE8=najavo trail
TTITLE9=song of the bandit
EXTD=
EXTT0=
EXTT1=
EXTT2=
EXTT3=
EXTT4=
EXTT5=
EXTT6=
EXTT7=
EXTT8=
EXTT9=
PLAYORDER=
